<?xml version="1.0" encoding="UTF-8"?>
<svg version="1.1" xmlns="http://www.w3.org/2000/svg" width="274" height="291">
<path d="M0 0 C0 63.03 0 126.06 0 191 C-7.27295791 191 -12.79349427 190.99901416 -19.5625 189.25 C-20.29573486 189.06663086 -21.02896973 188.88326172 -21.78442383 188.69433594 C-45.28903819 182.63298896 -65.97923161 167.49565395 -79 147 C-79.598125 146.0615625 -80.19625 145.123125 -80.8125 144.15625 C-93.13695155 123.96964832 -97.90164254 98.6405848 -92.81762695 75.30639648 C-90.94757795 67.92471923 -88.3265584 60.84141257 -85 54 C-84.47019531 52.90300781 -83.94039062 51.80601563 -83.39453125 50.67578125 C-71.10826431 27.28210028 -48.59558277 10.73140784 -23.6484375 2.96484375 C-15.68336198 0.85844797 -8.23716895 0 0 0 Z " fill="#831EDD" transform="translate(134,48)"/>
<path d="M0 0 C23.26424078 0 43.84237906 12.22009747 60.5625 27.546875 C64.72927398 31.74035907 68.38552745 36.32912364 72 41 C70.54750415 44.73534598 68.87935194 45.95037566 65.36328125 47.77734375 C64.40534668 48.28402588 63.44741211 48.79070801 62.46044922 49.31274414 C60.90221436 50.11699829 60.90221436 50.11699829 59.3125 50.9375 C57.11225811 52.09962746 54.91306406 53.26374065 52.71484375 54.4296875 C51.59319824 55.02233398 50.47155273 55.61498047 49.31591797 56.22558594 C44.28560345 58.9174079 39.32968002 61.73455467 34.375 64.5625 C26.49321233 69.04393928 18.58056449 73.4632416 10.625 77.8125 C9.67286621 78.33465088 8.72073242 78.85680176 7.73974609 79.39477539 C6.86914551 79.86906982 5.99854492 80.34336426 5.1015625 80.83203125 C4.33150879 81.25202393 3.56145508 81.6720166 2.76806641 82.10473633 C1 83 1 83 0 83 C0 55.61 0 28.22 0 0 Z " fill="#7121C2" transform="translate(147,49)"/>
<path d="M0 0 C4.14124919 1.3804164 7.01574246 2.40710811 10.6328125 4.51171875 C11.50744141 5.01477539 12.38207031 5.51783203 13.28320312 6.03613281 C14.68989258 6.85355957 14.68989258 6.85355957 16.125 7.6875 C25.16579482 12.87758592 34.29196712 17.86643131 43.5 22.75 C53.18003527 27.8891759 62.71582724 33.17370791 72 39 C69.88067451 45.27989607 65.47662699 49.26901921 61 54 C60.08734375 55.02673828 60.08734375 55.02673828 59.15625 56.07421875 C44.85755828 71.53311134 24.35158326 79.41985135 4 83 C2.68 83 1.36 83 0 83 C0 55.61 0 28.22 0 0 Z " fill="#7122C2" transform="translate(147,156)"/>
<path d="M0 0 C10.62481099 19.72716431 10.33885603 44.48076105 4.484375 65.484375 C3.04874399 70.16755879 1.09402745 74.57810766 -1 79 C-5.6657688 77.27569414 -9.98647803 75.00799365 -14.375 72.6875 C-15.20370605 72.25018555 -16.03241211 71.81287109 -16.88623047 71.36230469 C-25.30955991 66.88550453 -33.60358564 62.18778922 -41.890625 57.46484375 C-46.2387181 54.98928189 -50.60520629 52.54894738 -54.984375 50.12890625 C-56.13405762 49.49178711 -57.28374023 48.85466797 -58.46826172 48.19824219 C-60.70712162 46.95895927 -62.94827219 45.72380396 -65.19189453 44.49316406 C-66.19849121 43.93467773 -67.20508789 43.37619141 -68.2421875 42.80078125 C-69.1379248 42.30747314 -70.03366211 41.81416504 -70.95654297 41.3059082 C-73 40 -73 40 -74 38 C-64.87153699 32.80483061 -55.68457766 27.73115235 -46.4375 22.75 C-37.10931801 17.72427081 -27.85858335 12.57597711 -18.66186523 7.31347656 C-16.11566352 5.86114212 -13.56241772 4.42350791 -11 3 C-9.84951172 2.36022217 -9.84951172 2.36022217 -8.67578125 1.70751953 C-3.36118785 -1.12039595 -3.36118785 -1.12039595 0 0 Z " fill="#6D21BA" transform="translate(227,105)"/>
<path d="M0 0 C7.75 -0.125 7.75 -0.125 10 1 C10 1.66 10 2.32 10 3 C3.375 2.25 3.375 2.25 0 0 Z " fill="#6E1FA9" transform="translate(103,233)"/>
</svg>
